<?xml version="1.0" encoding="UTF-8" standalone="no"?>
<!-- Created with Inkscape (http://www.inkscape.org/) -->
<svg
   xmlns:dc="http://purl.org/dc/elements/1.1/"
   xmlns:cc="http://creativecommons.org/ns#"
   xmlns:rdf="http://www.w3.org/1999/02/22-rdf-syntax-ns#"
   xmlns:svg="http://www.w3.org/2000/svg"
   xmlns="http://www.w3.org/2000/svg"
   xmlns:sodipodi="http://sodipodi.sourceforge.net/DTD/sodipodi-0.dtd"
   xmlns:inkscape="http://www.inkscape.org/namespaces/inkscape"
   id="svg9703"
   sodipodi:version="0.32"
   inkscape:version="0.46"
   width="185"
   height="260"
   version="1.0"
   sodipodi:docname="source_follower.svg"
   inkscape:output_extension="org.inkscape.output.svg.inkscape">
  <metadata
     id="metadata9708">
    <rdf:RDF>
      <cc:Work
         rdf:about="">
        <dc:format>image/svg+xml</dc:format>
        <dc:type
           rdf:resource="http://purl.org/dc/dcmitype/StillImage" />
      </cc:Work>
    </rdf:RDF>
  </metadata>
  <defs
     id="defs9706">
    <inkscape:perspective
       sodipodi:type="inkscape:persp3d"
       inkscape:vp_x="0 : 526.18109 : 1"
       inkscape:vp_y="0 : 1000 : 0"
       inkscape:vp_z="744.09448 : 526.18109 : 1"
       inkscape:persp3d-origin="372.04724 : 350.78739 : 1"
       id="perspective9710" />
  </defs>
  <sodipodi:namedview
     inkscape:window-height="784"
     inkscape:window-width="1280"
     inkscape:pageshadow="2"
     inkscape:pageopacity="0.0"
     guidetolerance="10.0"
     gridtolerance="10.0"
     objecttolerance="10.0"
     borderopacity="1.0"
     bordercolor="#666666"
     pagecolor="#ffffff"
     id="base"
     showgrid="false"
     inkscape:zoom="1.7923077"
     inkscape:cx="92.569199"
     inkscape:cy="130.05477"
     inkscape:window-x="-6"
     inkscape:window-y="-6"
     inkscape:current-layer="svg9703" />
  <path
     style="fill:#000000"
     d="M 98.442058,244.76824 C 98.442058,242.91639 99.10873,242.76824 107.44206,242.76824 C 115.77539,242.76824 116.44206,242.91639 116.44206,244.76824 C 116.44206,246.62009 115.77539,246.76824 107.44206,246.76824 C 99.10873,246.76824 98.442058,246.62009 98.442058,244.76824 z M 91.108728,239.10157 C 90.742058,238.73491 90.442058,237.83491 90.442058,237.10157 C 90.442058,236.04433 93.858728,235.76824 106.94206,235.76824 C 122.77539,235.76824 123.44206,235.84905 123.44206,237.76824 C 123.44206,239.68403 122.77539,239.76824 107.60873,239.76824 C 98.90039,239.76824 91.475388,239.46824 91.108728,239.10157 z M 83.442058,230.76824 C 83.442058,228.88945 84.108728,228.76824 94.442058,228.76824 L 105.44206,228.76824 L 105.44206,219.92105 C 105.44206,211.90052 105.63807,210.98641 107.53987,210.1378 C 109.43272,209.29319 109.13962,208.96846 104.53987,206.81405 C 97.567558,203.5484 97.565818,200.9889 104.53366,197.72534 L 109.62525,195.34056 L 104.53366,192.84758 C 97.713848,189.50842 97.533098,186.66969 103.94206,183.55598 C 106.41706,182.35353 108.44206,181.09905 108.44206,180.76824 C 108.44206,180.43743 106.41706,179.18295 103.94206,177.9805 C 98.511428,175.3421 97.973968,172.57878 102.44206,170.26824 L 105.44206,168.71688 L 105.44206,157.70738 C 105.44206,149.25683 105.06668,146.12497 103.82705,144.23306 C 102.34037,141.9641 102.34037,141.57238 103.82705,139.30342 C 105.0397,137.45268 105.44206,134.36578 105.44206,126.91294 L 105.44206,116.98727 L 100.19206,118.53231 C 89.287758,121.74137 76.545318,117.01354 69.051538,106.97823 L 65.161018,101.76824 L 54.301538,101.76824 C 44.775388,101.76824 43.196498,102.0138 41.442058,103.76824 C 37.707568,107.50273 29.442058,105.04667 29.442058,100.2025 C 29.442058,98.27768 31.354158,94.526851 32.841758,93.533553 C 34.935408,92.135586 39.139458,92.776388 40.942058,94.76824 C 42.526968,96.51955 44.022028,96.76824 52.965478,96.76824 L 63.178928,96.76824 L 63.089688,90.01824 C 62.967568,80.7808 65.447738,74.054636 71.257998,67.865995 C 79.077568,59.537191 90.816108,56.041659 100.69206,59.101043 L 105.44206,60.572504 L 105.44206,50.370372 C 105.44206,43.768714 105.01856,39.744743 104.24206,38.96824 C 103.54402,38.270201 100.19762,37.76824 96.242058,37.76824 C 90.108728,37.76824 89.442058,37.572162 89.442058,35.76824 C 89.442058,33.972264 90.108728,33.76824 95.977238,33.76824 C 100.30901,33.76824 103.34347,33.223719 104.97724,32.15323 C 107.2462,30.66655 107.63792,30.66655 109.90688,32.15323 C 111.54065,33.223719 114.57511,33.76824 118.90688,33.76824 C 124.72859,33.76824 125.44206,33.981994 125.44206,35.726176 C 125.44206,37.476542 124.62045,37.715075 117.69206,37.976176 L 109.94206,38.26824 L 109.6593,50.136975 L 109.37653,62.00571 L 114.23223,67.139888 C 120.2819,73.536528 122.94206,80.14226 122.94206,88.76824 C 122.94206,97.39422 120.2819,103.99995 114.23223,110.39659 L 109.37653,115.53077 L 109.6593,127.3995 L 109.94206,139.26824 L 122.75718,139.5486 C 134.50715,139.80566 135.71234,139.66375 137.25718,137.84124 C 141.38647,132.96975 149.44206,135.61393 149.44206,141.84082 C 149.44206,148.19054 142.44583,150.86291 137.85115,146.26824 C 135.46806,143.88515 134.80145,143.76824 123.59661,143.76824 C 115.78751,143.76824 111.43928,144.17102 110.64206,144.96824 C 109.83342,145.77688 109.44206,150.35299 109.44206,158.99962 C 109.44206,169.48281 109.16755,171.93635 107.94206,172.40661 C 105.51765,173.33695 106.16811,174.23661 110.94206,176.55598 C 117.18685,179.58993 116.98837,181.95097 110.19934,185.39124 L 104.95662,188.04793 L 110.19934,190.61491 C 113.59194,192.27602 115.44206,193.80874 115.44206,194.95822 C 115.44206,196.09629 113.55828,197.68913 110.19934,199.39124 L 104.95662,202.04793 L 110.19934,204.61491 C 116.47438,207.68734 117.31658,210.74915 112.44206,212.76824 C 109.49205,213.99017 109.44206,214.13384 109.44206,221.38956 L 109.44206,228.76824 L 119.94206,228.76824 C 129.77539,228.76824 130.44206,228.89522 130.44206,230.76824 C 130.44206,232.7115 129.77539,232.76824 106.94206,232.76824 C 84.108728,232.76824 83.442058,232.7115 83.442058,230.76824 z M 145.24206,144.56824 C 148.04506,141.76524 145.3183,137.03797 141.58243,138.22369 C 139.06215,139.02359 138.17368,141.39824 139.48083,143.84068 C 140.64438,146.01479 143.44219,146.36811 145.24206,144.56824 z M 102.69206,112.88838 C 105.18515,111.91776 105.44206,111.34832 105.44206,106.79299 L 105.44206,101.76824 L 98.94206,101.76824 C 93.108728,101.76824 92.442058,101.97337 92.442058,103.76824 C 92.442058,105.3238 91.775388,105.76824 89.442058,105.76824 C 86.913458,105.76824 86.442058,105.37772 86.442058,103.28294 L 86.442058,100.79764 L 83.192058,102.7792 C 79.291668,105.15731 78.442058,105.24478 78.442058,103.26824 C 78.442058,102.17751 77.317388,101.76824 74.320088,101.76824 C 70.280848,101.76824 70.227328,101.8134 71.653648,104.01824 C 73.480068,106.84156 81.656518,112.45713 85.806768,113.73856 C 89.498818,114.87853 98.780668,114.41118 102.69206,112.88838 z M 116.7662,100.26824 C 118.39272,97.213029 118.89649,94.49676 118.89903,88.76824 C 118.90262,80.674135 117.43436,76.649542 112.5779,71.441674 L 109.94206,68.615109 L 109.44206,74.441674 L 108.94206,80.26824 L 100.69206,80.558682 L 92.442058,80.849125 L 92.442058,88.76824 L 92.442058,96.687355 L 100.69206,96.977798 L 108.94206,97.26824 L 109.24566,103.1422 L 109.54926,109.01615 L 112.09298,106.6422 C 113.49202,105.33652 115.59497,102.46824 116.7662,100.26824 z M 39.957288,100.72025 C 41.305488,96.472437 35.524938,94.067832 33.135038,97.88232 C 31.518808,100.46194 33.033198,102.76824 36.343288,102.76824 C 38.452178,102.76824 39.494808,102.1774 39.957288,100.72025 z M 89.471078,71.76824 C 91.775388,71.76824 92.442058,72.217026 92.442058,73.76824 C 92.442058,75.563112 93.108728,75.76824 98.94206,75.76824 L 105.44206,75.76824 L 105.44206,70.743489 C 105.44206,66.182902 105.18803,65.621841 102.69206,64.669784 C 84.208048,57.61928 63.723768,73.719333 66.942058,92.76824 L 67.617848,96.76824 L 73.029958,96.76824 C 77.174048,96.76824 78.442058,96.416802 78.442058,95.26824 C 78.442058,93.336948 78.742788,93.372027 82.667888,95.76118 L 85.942058,97.75412 L 86.221078,84.76118 L 86.500108,71.76824 L 89.471078,71.76824 z M 83.442058,197.29342 C 83.442058,196.03722 83.845088,195.91357 85.337048,196.71204 C 86.729278,197.45714 87.541118,197.35381 88.396968,196.32257 C 89.336838,195.19009 88.922478,194.62773 86.251968,193.41152 C 84.431518,192.58245 82.081898,191.76104 81.030578,191.58618 C 79.875598,191.39407 78.652998,189.88307 77.941368,187.76824 C 77.293598,185.84324 76.147218,184.26824 75.393828,184.26824 C 73.673298,184.26824 72.253308,190.50272 73.826248,191.15069 C 74.439948,191.4035 73.367058,191.63898 71.442058,191.67398 C 69.517058,191.70898 68.442188,191.40701 69.053458,191.00293 C 70.868948,189.8028 72.671118,177.53923 71.177328,176.55021 C 70.486708,176.09295 72.587528,175.85049 75.942058,176.00029 C 81.373208,176.24284 81.973378,176.48938 82.272418,178.60071 C 82.454108,179.88356 81.898668,181.7112 81.038098,182.66212 C 79.730678,184.1068 79.671308,184.91533 80.676978,187.57965 C 82.062958,191.25154 82.988258,191.61156 83.731808,188.76824 C 84.407458,186.18455 90.442058,185.84501 90.442058,188.39068 C 90.442058,189.73929 90.181728,189.79708 88.899678,188.73307 C 87.801898,187.82199 87.048138,187.76216 86.284778,188.52552 C 85.521408,189.28888 86.127698,190.07144 88.388058,191.24032 C 90.940388,192.56017 91.502828,193.41125 91.252958,195.57542 C 90.984818,197.89789 90.426318,198.31092 87.192058,198.57861 C 84.295898,198.8183 83.442058,198.52568 83.442058,197.29342 z M 78.870628,181.19681 C 80.879618,179.18782 80.859638,179.06209 78.314878,177.70018 C 76.655688,176.81221 75.999058,176.85947 75.330198,177.91499 C 72.865078,181.8052 75.665958,184.40148 78.870628,181.19681 z M 150.85729,172.40794 C 150.54193,171.5861 150.43198,169.86847 150.61298,168.59097 C 150.87381,166.74996 151.56424,166.26824 153.94206,166.26824 C 156.70396,166.26824 156.94206,166.54602 156.94206,169.76824 C 156.94206,172.84482 156.60869,173.30659 154.18637,173.58521 C 152.43767,173.78635 151.22116,173.35615 150.85729,172.40794 z M 154.79466,168.24472 C 154.22537,166.76118 154.03753,166.7397 153.29147,168.07284 C 152.82254,168.91077 152.73164,170.35929 153.08946,171.29176 C 153.65875,172.7753 153.84659,172.79678 154.59265,171.46364 C 155.06158,170.62571 155.15248,169.17719 154.79466,168.24472 z M 159.27067,169.76824 C 159.01528,167.09022 159.29012,165.76824 160.10228,165.76824 C 160.76946,165.76824 161.45635,167.23074 161.6287,169.01824 C 161.80105,170.80574 162.39206,172.26824 162.94206,172.26824 C 164.49791,172.26824 164.77837,167.59668 163.27955,166.64664 C 162.30625,166.02971 162.52612,165.7947 164.08702,165.78355 C 165.86253,165.77088 166.29769,166.45722 166.61345,169.76824 L 166.99491,173.76824 L 163.32352,173.76824 C 159.77048,173.76824 159.63983,173.6393 159.27067,169.76824 z M 168.26631,169.72256 C 167.77036,164.52197 168.70842,162.89174 170.92274,165.10606 C 171.83694,166.02026 172.10277,166.76824 171.51349,166.76824 C 170.0574,166.76824 170.15296,171.07914 171.64206,172.56824 C 172.57539,173.50157 172.37651,173.76824 170.7471,173.76824 C 169.02927,173.76824 168.58268,173.03993 168.26631,169.72256 z M 144.99405,168.58162 C 144.75542,167.85926 144.03108,164.56824 143.38443,161.26824 C 142.73777,157.96824 141.6987,154.93763 141.07537,154.53355 C 140.45205,154.12947 141.43112,153.79197 143.25108,153.78355 C 145.21207,153.77448 146.30758,154.17681 145.94024,154.77118 C 145.02668,156.24935 146.51213,164.84297 147.56836,164.19018 C 149.10553,163.24016 152.55127,155.75395 151.92086,154.73394 C 151.59053,154.19945 152.57833,153.77508 154.13304,153.78355 C 155.69955,153.79209 156.43887,154.12384 155.80447,154.53355 C 155.17879,154.93763 153.00086,158.30417 150.96461,162.01476 C 147.01074,169.21978 145.68616,170.67665 144.99405,168.58162 z M 22.192058,123.10596 C 22.879558,122.82855 23.442058,121.32657 23.442058,119.76824 C 23.442058,118.20991 22.879558,116.70793 22.192058,116.43052 C 21.504558,116.15311 21.954558,115.89061 23.192058,115.84719 C 25.111858,115.77983 25.442058,116.28189 25.442058,119.26824 C 25.442058,121.19324 25.941288,122.76824 26.551458,122.76824 C 27.230518,122.76824 27.502368,121.41055 27.252268,119.26824 C 26.850418,115.82613 26.904758,115.76824 30.537818,115.76824 C 34.117438,115.76824 34.243818,115.89227 34.613448,119.76824 L 34.994908,123.76824 L 27.968478,123.68929 C 24.103948,123.64587 21.504558,123.38337 22.192058,123.10596 z M 32.258478,120.01824 C 32.084448,118.50574 31.492058,117.26824 30.942058,117.26824 C 30.392058,117.26824 29.799668,118.50574 29.625638,120.01824 C 29.394768,122.02465 29.750728,122.76824 30.942058,122.76824 C 32.133388,122.76824 32.489338,122.02465 32.258478,120.01824 z M 115.44206,122.29342 C 115.44206,121.03722 115.8451,120.91357 117.33705,121.71204 C 118.72811,122.45651 119.54059,122.35445 120.39226,121.32825 C 121.3201,120.21027 120.99064,119.66101 118.74726,118.58579 C 116.78624,117.6459 115.94206,116.49301 115.94206,114.75477 C 115.94206,112.6804 116.48077,112.2163 119.19206,111.95488 C 121.6974,111.71332 122.44206,112.02778 122.44206,113.32733 C 122.44206,114.73302 122.18578,114.80044 120.89968,113.73307 C 119.8019,112.82199 119.04814,112.76216 118.28478,113.52552 C 117.52142,114.28888 118.1277,115.07144 120.38806,116.24032 C 122.94039,117.56017 123.50283,118.41125 123.25297,120.57542 C 122.98482,122.89789 122.42632,123.31092 119.19206,123.57861 C 116.29591,123.8183 115.44206,123.52568 115.44206,122.29342 z M 13.994048,119.58162 C 13.755408,118.85926 13.031078,115.56824 12.384428,112.26824 C 11.737768,108.96824 10.698688,105.93763 10.075368,105.53355 C 9.4520482,105.12947 10.431118,104.79197 12.251078,104.78355 C 14.212068,104.77448 15.307578,105.17681 14.940238,105.77118 C 14.026678,107.24935 15.512128,115.84297 16.568358,115.19018 C 18.105528,114.24016 21.551258,106.75395 20.920858,105.73394 C 20.590528,105.19945 21.578318,104.77508 23.133038,104.78355 C 24.699548,104.79209 25.438868,105.12384 24.804468,105.53355 C 24.178788,105.93763 22.000858,109.30417 19.964608,113.01476 C 16.010728,120.21978 14.686158,121.67665 13.994048,119.58162 z M 23.442058,112.76824 C 23.442058,112.21824 23.892058,111.76824 24.442058,111.76824 C 24.992058,111.76824 25.442058,112.21824 25.442058,112.76824 C 25.442058,113.31824 24.992058,113.76824 24.442058,113.76824 C 23.892058,113.76824 23.442058,113.31824 23.442058,112.76824 z M 49.642058,91.56824 C 48.982058,90.90824 48.442058,88.74824 48.442058,86.76824 C 48.442058,82.179012 49.899858,80.76824 54.642058,80.76824 C 57.391878,80.76824 58.442058,81.192509 58.442058,82.303424 C 58.442058,83.509498 58.028828,83.617456 56.514498,82.80701 C 52.842228,80.841668 49.917148,84.04498 51.134218,88.699065 C 51.676718,90.773587 54.048918,92.129246 55.532298,91.212467 C 56.858518,90.392821 56.644748,88.016694 55.192058,87.430521 C 54.504558,87.153108 55.517058,86.926135 57.442058,86.926135 C 59.367058,86.926135 60.379558,87.153108 59.692058,87.430521 C 59.004558,87.707933 58.442058,89.022407 58.442058,90.351573 C 58.442058,92.483152 57.993778,92.76824 54.642058,92.76824 C 52.552058,92.76824 50.302058,92.22824 49.642058,91.56824 z M 115.19206,63.105959 C 115.95008,62.800093 116.44206,60.699234 116.44206,57.76824 C 116.44206,54.837246 115.95008,52.736387 115.19206,52.430521 C 114.50456,52.153108 116.21456,51.890608 118.99206,51.847187 C 124.96892,51.75375 126.44206,52.924563 126.44206,57.76824 C 126.44206,62.611917 124.96892,63.78273 118.99206,63.689293 C 116.21456,63.645872 114.50456,63.383372 115.19206,63.105959 z M 122.05728,62.002927 C 124.39304,60.464165 124.6073,56.933484 122.49321,54.819392 C 119.34237,51.668551 118.44206,52.32389 118.44206,57.76824 C 118.44206,62.702556 119.36113,63.779106 122.05728,62.002927 z M 107.57824,26.01824 C 107.48257,24.437473 106.77283,23.727734 105.19206,23.632058 L 102.94206,23.495876 L 105.19206,23.062507 C 106.64471,22.782715 107.49032,21.856434 107.57824,20.44869 C 107.71345,18.283839 107.71752,18.284337 108.14779,20.518241 C 108.42759,21.970889 109.35387,22.8165 110.76161,22.904422 L 112.94206,23.040604 L 110.75355,23.465915 C 109.4905,23.711375 108.38519,24.816677 108.13973,26.079733 L 107.71442,28.26824 L 107.57824,26.01824 z M 98.99405,23.581622 C 98.755408,22.859262 98.031078,19.568241 97.384428,16.268241 C 96.737768,12.968241 95.698688,9.9376315 95.075368,9.5335535 C 94.452048,9.1294755 95.431118,8.7919755 97.251078,8.7835535 C 99.21207,8.7744785 100.30758,9.1768145 99.94024,9.7711775 C 99.02668,11.249353 100.51213,19.842971 101.56836,19.190182 C 103.10553,18.240162 106.55127,10.753955 105.92086,9.7339445 C 105.59053,9.1994525 106.57833,8.7750785 108.13304,8.7835535 C 109.69955,8.7920925 110.43887,9.1238395 109.80447,9.5335535 C 109.17879,9.9376315 107.00086,13.304173 104.96461,17.014757 C 101.01074,24.219783 99.68616,25.676653 98.99405,23.581622 z"
     id="path9730" />
</svg>
